<svg xmlns="http://www.w3.org/2000/svg" width="934.97671" height="571.13587" viewBox="0 0 934.97671 571.13587" xmlns:xlink="http://www.w3.org/1999/xlink"><path d="m733.51782,89.20634s-20.58084,2.32364-21.90863,34.19074c-1.1065,26.55592-3.36559,41.35531,7.43812,46.89548,3.86159,1.98023,8.40357,2.15404,12.5262.79865l44.10183-14.49923s.6639-47.80065-14.60575-59.41886c-15.26965-11.61821-27.55176-7.96678-27.55176-7.96678Z" fill="#36344e"/><polygon points="757.8284 162.45946 735.50951 169.79718 735.50951 137.67089 755.7584 137.67089 757.8284 162.45946" fill="#faafb2"/><path id="uuid-023aec4f-dcd2-4284-af1d-dd8f66feb4e7-58" d="m689.60231,344.84043c-1.20963,7.36067-6.11895,12.63854-10.9647,11.78847-4.84572-.85006-7.7921-7.50542-6.58102-14.86855.44204-2.94856,1.6079-5.73614,3.40007-8.12947l5.53266-31.11604,15.05417,3.14952-7.05251,30.34053c.92723,2.87095,1.13683,5.90066.61133,8.83555,0,0,0,.00002,0,0Z" fill="#faafb2"/><polygon points="740.70187 551.76585 719.79622 551.76585 707.67317 440.06942 739.9853 440.06942 740.70187 551.76585" fill="#faafb2"/><path d="m699.43844,569.72022c-2.19897,0-4.15503-.05469-5.62915-.18994-5.55493-.50977-10.85181-4.60742-13.51489-7.00488-1.19434-1.07471-1.57861-2.79248-.9563-4.27344h0c.44629-1.06299,1.33789-1.85449,2.44653-2.17139l14.67236-4.19189,23.7583-16.0293.26514.4751c.09888.17773,2.43188,4.37988,3.21338,7.22119.29712,1.08105.21899,1.98096-.23242,2.67578-.31323.48242-.74658.7627-1.10059.92236.43115.45166,1.77832,1.3623,5.92798,2.0249,6.06567.96094,7.33423-5.31592,7.38525-5.5835l.04004-.21094.18042-.11621c2.88477-1.85791,4.65747-2.70361,5.27222-2.52246.38257.11475,1.02271.30518,2.7417,17.41113.17407.53516,1.38086,4.47314.55981,8.23633-.8938,4.09668-18.78027,2.68652-22.35767,2.36279-.10156.0127-13.49487.96387-22.67212.96436Z" fill="#36344e"/><polygon points="787.9286 551.76585 767.02295 551.76585 754.8999 440.06942 787.21203 440.06942 787.9286 551.76585" fill="#faafb2"/><path d="m746.66501,569.72022c-2.19897,0-4.15503-.05469-5.62915-.18994-5.55469-.50977-10.85156-4.60742-13.51465-7.00488-1.19434-1.07471-1.57861-2.79248-.95654-4.27344v-.00049c.44653-1.0625,1.33838-1.854,2.44678-2.1709l14.67236-4.19189,23.7583-16.0293.26514.4751c.09888.17773,2.43188,4.37988,3.21338,7.22119.29712,1.08105.21899,1.98096-.23242,2.67578-.31323.48242-.74658.7627-1.10059.92236.43115.45166,1.77832,1.3623,5.92798,2.0249,6.06567.96094,7.33423-5.31592,7.38525-5.5835l.04004-.21094.18042-.11621c2.88525-1.8584,4.66187-2.7002,5.27197-2.52246.38257.11475,1.02295.30518,2.7417,17.41113.17407.53516,1.3811,4.47314.55981,8.23633-.89331,4.09619-18.78076,2.68652-22.35767,2.36279-.10156.0127-13.49487.96436-22.67212.96436Z" fill="#36344e"/><polygon points="793.9418 277.4214 692.36541 277.4214 728.8798 157.25588 769.37757 157.25588 793.9418 277.4214" fill="#dfdfe0"/><path d="m735.26978,157.27432s-25.22812-.6639-27.88371,5.97508c-2.65559,6.63898-33.85879,164.64669-33.85879,164.64669h20.58084l41.16167-170.62177Z" fill="#dfdfe0"/><circle cx="738.27252" cy="124.32365" r="22.24058" fill="#faafb2"/><path d="m732.19002,97.50506s-12.2402,49.69672,1.36971,72.93314l-19.17006-4.07149s-7.42777-54.39446,7.50994-64.28365l10.29042-4.578Z" fill="#36344e"/><path d="m772.83267,277.4214h-66.65724l-36.47436,149.68613c-.66976,6.32288,3.33894,12.221,9.48082,13.8656,20.01304,5.35884,68.02505,12.95007,140.70079-8.1964,6.99369-2.03496,10.96275-9.4122,8.76764-16.35729l-55.81764-138.99803Z" fill="#36344e"/><g><path d="m745.88156,157.25588l20.73364-.91254c8.97804.67777,17.0975,5.56477,21.91064,13.17385,14.64681,23.1551,42.06415,71.97129,17.5863,78.65853-32.25648,8.81234-47.88591-40.23747-47.88591-40.23747l-12.34467-50.68239Z" fill="#dfdfe0"/><path id="uuid-59e13955-aacd-440d-a0e3-d3c3b944faa8-59" d="m738.76548,171.79797c-4.25984-6.12343-4.41447-13.32992-.3458-16.09574,4.06865-2.76582,10.81879-.0436,15.07931,6.08261,1.73693,2.42332,2.84241,5.23539,3.22393,8.20092l17.70708,26.17781-12.99437,8.22763-16.07645-26.6802c-2.66521-1.41377-4.92618-3.44136-6.5937-5.91303,0,0-.00001-.00002,0,0Z" fill="#faafb2"/><polygon points="749.24762 192.97392 763.87943 179.506 792.8105 206.44183 765.90532 224.83493 749.24762 192.97392" fill="#dfdfe0"/></g><rect x="0" y="126.62691" width="524.08467" height="64.81623" rx="32.40808" ry="32.40808" fill="#82ff63"/><g><path d="m268.87511,290.40238c-16.23291,0-29.43945-13.20654-29.43945-29.43945s13.20654-29.43945,29.43945-29.43945,29.43945,13.20654,29.43945,29.43945-13.20654,29.43945-29.43945,29.43945Zm0-50.87891c-11.82178,0-21.43945,9.61768-21.43945,21.43945s9.61768,21.43945,21.43945,21.43945,21.43945-9.61768,21.43945-21.43945-9.61768-21.43945-21.43945-21.43945Z" fill="#484662"/><path d="m324.40758,314.51175c-.92139,0-1.84741-.31641-2.60181-.96338l-37.21313-31.90967c-1.677-1.43799-1.87085-3.96338-.43286-5.64062,1.43823-1.67627,3.96338-1.87061,5.64038-.43262l37.21313,31.90967c1.677,1.43799,1.87085,3.96338.43286,5.64062-.79126.92236-1.91162,1.396-3.03857,1.396Z" fill="#484662"/></g><path d="m203.30666,569.94587c0,.66003.53003,1.19,1.19006,1.19h729.28998c.65997,0,1.19-.52997,1.19-1.19,0-.65997-.53003-1.19-1.19-1.19H204.49672c-.66003,0-1.19006.53003-1.19006,1.19Z" fill="#484565"/><rect x="420.49792" y="93.95271" width="103.58675" height="8.23012" rx="4.11505" ry="4.11505" fill="#dfdfe0"/><rect x="0" y="0" width="103.58675" height="8.23012" rx="4.11505" ry="4.11505" fill="#dfdfe0"/><rect x="0" y="35.91443" width="288.10822" height="8.23012" rx="4.11505" ry="4.11505" fill="#dfdfe0"/></svg>